<svg width="194" height="40" viewBox="0 0 194 40" fill="none" xmlns="http://www.w3.org/2000/svg">
<g clip-path="url(#clip0_58_607)">
<path d="M39.3791 4.68046L35.5057 8.5488H31.6328C31.6328 8.5488 31.5874 8.50296 31.5416 8.45755C31.4961 8.4113 31.4453 8.36088 31.4453 8.36088V4.49296L35.3182 0.619629V4.49296C35.3182 4.49296 35.3182 4.58421 35.3182 4.68046C35.4095 4.68046 35.5057 4.68046 35.5057 4.68046H39.3791Z" fill="#8C52FF"/>
<path d="M31.5423 22.3252H24.6085C24.6085 20.4114 23.8323 18.6756 22.5781 17.4214L27.4765 12.5181C29.9894 15.031 31.5423 18.4931 31.5423 22.3252Z" fill="#D9D9D9"/>
<path d="M24.6071 22.3252H31.5409C31.5409 29.9902 25.328 36.1985 17.668 36.1985V29.2644C21.5005 29.2644 24.6071 26.1577 24.6071 22.3252Z" fill="#8C52FF"/>
<path d="M27.4751 12.5179L22.5767 17.4213C21.3176 16.1679 19.5867 15.3913 17.668 15.3913V8.45752C21.4955 8.45752 24.9676 10.0109 27.4751 12.5179Z" fill="#D9D9D9"/>
<path d="M17.6685 15.3911C19.5873 15.3911 21.3181 16.1678 22.5773 17.4211C23.8315 18.6753 24.6077 20.4111 24.6077 22.3249C24.6077 26.1574 21.501 29.264 17.6685 29.264C13.8415 29.264 10.7344 26.1574 10.7344 22.3249C10.7344 18.4974 13.8415 15.3911 17.6685 15.3911ZM18.694 21.2999C18.4298 21.0357 18.0698 20.8732 17.6685 20.8732C16.8669 20.8732 16.2173 21.5232 16.2173 22.3249C16.2173 23.1274 16.8669 23.7765 17.6685 23.7765C18.4706 23.7765 19.1202 23.1274 19.1202 22.3249C19.1202 21.924 18.9577 21.5586 18.694 21.2999Z" fill="#8C52FF"/>
<path d="M18.6954 21.3002C18.9592 21.559 19.1217 21.9244 19.1217 22.3252C19.1217 23.1277 18.4721 23.7769 17.67 23.7769C16.8683 23.7769 16.2188 23.1277 16.2188 22.3252C16.2188 21.5235 16.8683 20.8735 17.67 20.8735C18.0713 20.8735 18.4313 21.036 18.6954 21.3002Z" fill="white"/>
<path d="M17.6683 29.2644V36.1985C10.0087 36.1985 3.80078 29.9902 3.80078 22.3252H10.7341C10.7341 26.1577 13.8412 29.2644 17.6683 29.2644Z" fill="#D9D9D9"/>
<path d="M17.6683 8.45752V15.3913C13.8412 15.3913 10.7341 18.4975 10.7341 22.325H3.80078C3.80078 14.665 10.0087 8.45752 17.6683 8.45752Z" fill="#8C52FF"/>
<path d="M18.695 21.5536C18.6304 21.5536 18.565 21.5286 18.5154 21.4795C18.4167 21.3799 18.4167 21.2195 18.5158 21.1203L31.3633 8.27781C31.4621 8.17823 31.6229 8.17823 31.7225 8.27781C31.8212 8.37656 31.8212 8.5374 31.7217 8.63698L18.8746 21.4795C18.825 21.5286 18.76 21.5536 18.695 21.5536Z" fill="white"/>
<mask id="mask0_58_607" style="mask-type:luminance" maskUnits="userSpaceOnUse" x="31" y="0" width="9" height="9">
<path d="M31.1914 0.00683594H39.9947V8.8535H31.1914V0.00683594Z" fill="white"/>
</mask>
<g mask="url(#mask0_58_607)">
<path d="M31.7428 8.29531H35.4049L38.7695 4.93531H35.0686V1.23281L31.7032 4.59865L31.7428 8.29531ZM35.6153 8.80281H31.532L31.1953 8.46698V4.38781L35.5761 0.0078125V4.4274H39.9966L35.6153 8.80281Z" fill="white"/>
</g>
<path d="M17.669 8.71146C10.1627 8.71146 4.05521 14.8181 4.05521 22.3252C4.05521 29.8344 10.1627 35.9444 17.669 35.9444C25.1785 35.9444 31.2885 29.8344 31.2885 22.3252C31.2885 18.6906 29.8706 15.2719 27.2965 12.6977C24.7256 10.1269 21.3065 8.71146 17.669 8.71146ZM17.669 36.4523C9.88188 36.4523 3.54688 30.1152 3.54688 22.3252C3.54688 14.5385 9.88188 8.20312 17.669 8.20312C21.4419 8.20312 24.9885 9.67229 27.6552 12.3385C30.3256 15.0085 31.796 18.5556 31.796 22.3252C31.796 30.1152 25.459 36.4523 17.669 36.4523Z" fill="white"/>
<path d="M17.668 15.6447C13.9851 15.6447 10.9884 18.6414 10.9884 22.3251C10.9884 26.0114 13.9851 29.0105 17.668 29.0105C21.3546 29.0105 24.3534 26.0114 24.3534 22.3251C24.3534 20.5405 23.6588 18.8635 22.3971 17.601C21.1305 16.3401 19.4509 15.6447 17.668 15.6447ZM17.668 29.518C13.7046 29.518 10.4805 26.2918 10.4805 22.3251C10.4805 18.3622 13.7046 15.1372 17.668 15.1372C19.5863 15.1372 21.393 15.8847 22.7555 17.2414C24.1134 18.5997 24.8609 20.4055 24.8609 22.3251C24.8609 26.2918 21.6346 29.518 17.668 29.518Z" fill="white"/>
<path d="M35.0908 22.5791H20.8987C20.7579 22.5791 20.6445 22.4654 20.6445 22.325C20.6445 22.185 20.7579 22.0708 20.8987 22.0708H35.0908C35.2316 22.0708 35.3445 22.185 35.3445 22.325C35.3445 22.4654 35.2316 22.5791 35.0908 22.5791Z" fill="white"/>
<path d="M14.4462 22.5791H0.25375C0.113333 22.5791 0 22.4654 0 22.325C0 22.185 0.113333 22.0708 0.25375 22.0708H14.4462C14.5867 22.0708 14.7004 22.185 14.7004 22.325C14.7004 22.4654 14.5867 22.5791 14.4462 22.5791Z" fill="white"/>
<path d="M17.6713 19.3557C17.5313 19.3557 17.418 19.2419 17.418 19.1019V4.90902C17.418 4.76902 17.5313 4.65527 17.6713 4.65527C17.8117 4.65527 17.9251 4.76902 17.9251 4.90902V19.1019C17.9251 19.2419 17.8117 19.3557 17.6713 19.3557Z" fill="white"/>
<path d="M17.6713 40.0006C17.5313 40.0006 17.418 39.8865 17.418 39.7465V25.5536C17.418 25.4136 17.5313 25.2998 17.6713 25.2998C17.8117 25.2998 17.9251 25.4136 17.9251 25.5536V39.7465C17.9251 39.8865 17.8117 40.0006 17.6713 40.0006Z" fill="white"/>
</g>
<path d="M62.098 17.5469H58.9872C58.9304 17.1444 58.8144 16.7869 58.6392 16.4744C58.464 16.1572 58.2391 15.8873 57.9645 15.6648C57.6899 15.4422 57.3726 15.2718 57.0128 15.1534C56.6577 15.035 56.2718 14.9759 55.8551 14.9759C55.1023 14.9759 54.4465 15.1629 53.8878 15.5369C53.3291 15.9062 52.8958 16.446 52.5881 17.1562C52.2803 17.8617 52.1264 18.7187 52.1264 19.7273C52.1264 20.7642 52.2803 21.6354 52.5881 22.3409C52.9006 23.0464 53.3362 23.5791 53.8949 23.9389C54.4536 24.2988 55.0999 24.4787 55.8338 24.4787C56.2457 24.4787 56.6269 24.4242 56.9773 24.3153C57.3324 24.2064 57.6473 24.0478 57.9219 23.8395C58.1965 23.6264 58.4238 23.3684 58.6037 23.0653C58.7884 22.7623 58.9162 22.4167 58.9872 22.0284L62.098 22.0426C62.0175 22.7102 61.8163 23.3542 61.4943 23.9744C61.1771 24.59 60.7486 25.1416 60.2088 25.6293C59.6738 26.1122 59.0346 26.4957 58.2912 26.7798C57.5526 27.0592 56.7169 27.1989 55.7841 27.1989C54.4867 27.1989 53.3267 26.9053 52.304 26.3182C51.286 25.7311 50.4811 24.8812 49.8892 23.7685C49.3021 22.6558 49.0085 21.3087 49.0085 19.7273C49.0085 18.1411 49.3068 16.7917 49.9034 15.679C50.5 14.5663 51.3097 13.7187 52.3324 13.1364C53.3551 12.5492 54.5057 12.2557 55.7841 12.2557C56.6269 12.2557 57.4081 12.3741 58.1278 12.6108C58.8523 12.8475 59.4938 13.1932 60.0526 13.6477C60.6113 14.0975 61.0658 14.6491 61.4162 15.3026C61.7713 15.956 61.9986 16.7041 62.098 17.5469ZM71.2422 22.3551V16.0909H74.2678V27H71.3629V25.0185H71.2493C71.0031 25.6577 70.5935 26.1714 70.0206 26.5597C69.4524 26.9479 68.7588 27.142 67.9396 27.142C67.2105 27.142 66.5689 26.9763 66.0149 26.6449C65.4609 26.3134 65.0277 25.8423 64.7152 25.2315C64.4074 24.6207 64.2512 23.8892 64.2464 23.0369V16.0909H67.272V22.4972C67.2768 23.1411 67.4496 23.6501 67.7905 24.0241C68.1314 24.3982 68.5883 24.5852 69.1612 24.5852C69.5258 24.5852 69.8667 24.5024 70.1839 24.3366C70.5012 24.1662 70.7569 23.9152 70.951 23.5838C71.1499 23.2524 71.2469 22.8428 71.2422 22.3551ZM76.6879 27V16.0909H79.6211V17.9943H79.7347C79.9336 17.3172 80.2674 16.8059 80.7362 16.4602C81.2049 16.1098 81.7447 15.9347 82.3555 15.9347C82.507 15.9347 82.6703 15.9441 82.8455 15.9631C83.0207 15.982 83.1746 16.008 83.3072 16.0412V18.7259C83.1651 18.6832 82.9686 18.6454 82.7177 18.6122C82.4667 18.5791 82.2371 18.5625 82.0288 18.5625C81.5837 18.5625 81.186 18.6596 80.8356 18.8537C80.4899 19.0431 80.2153 19.3082 80.0117 19.6491C79.8129 19.9901 79.7134 20.383 79.7134 20.8281V27H76.6879ZM87.6697 27.206C86.9737 27.206 86.3535 27.0852 85.8089 26.8438C85.2644 26.5975 84.8336 26.2353 84.5163 25.7571C84.2038 25.2741 84.0476 24.6728 84.0476 23.9531C84.0476 23.3471 84.1589 22.8381 84.3814 22.4261C84.6039 22.0142 84.907 21.6828 85.2905 21.4318C85.674 21.1809 86.1096 20.9915 86.5973 20.8636C87.0897 20.7358 87.6058 20.6458 88.1456 20.5938C88.7801 20.5275 89.2914 20.4659 89.6797 20.4091C90.0679 20.3475 90.3497 20.2576 90.5249 20.1392C90.7 20.0208 90.7876 19.8456 90.7876 19.6136V19.571C90.7876 19.1212 90.6456 18.7732 90.3615 18.527C90.0821 18.2808 89.6844 18.1577 89.1683 18.1577C88.6238 18.1577 88.1906 18.2784 87.8686 18.5199C87.5466 18.7566 87.3336 19.0549 87.2294 19.4148L84.4311 19.1875C84.5732 18.5246 84.8525 17.9517 85.2692 17.4688C85.6858 16.9811 86.2232 16.607 86.8814 16.3466C87.5443 16.0814 88.3113 15.9489 89.1825 15.9489C89.7886 15.9489 90.3686 16.0199 90.9226 16.1619C91.4813 16.304 91.9761 16.5241 92.407 16.8224C92.8426 17.1207 93.1858 17.5043 93.4368 17.973C93.6877 18.437 93.8132 18.9934 93.8132 19.642V27H90.9439V25.4872H90.8587C90.6835 25.8281 90.4491 26.1288 90.1555 26.3892C89.862 26.6449 89.5092 26.8461 89.0973 26.9929C88.6854 27.1349 88.2095 27.206 87.6697 27.206ZM88.5362 25.1179C88.9813 25.1179 89.3743 25.0303 89.7152 24.8551C90.0561 24.6752 90.3236 24.4337 90.5178 24.1307C90.7119 23.8277 90.8089 23.4844 90.8089 23.1009V21.9432C90.7143 22.0047 90.584 22.0616 90.4183 22.1136C90.2573 22.161 90.075 22.206 89.8714 22.2486C89.6679 22.2865 89.4643 22.322 89.2607 22.3551C89.0571 22.3835 88.8724 22.4096 88.7067 22.4332C88.3516 22.4853 88.0414 22.5682 87.7763 22.6818C87.5111 22.7955 87.3052 22.9493 87.1584 23.1435C87.0116 23.3329 86.9382 23.5696 86.9382 23.8537C86.9382 24.2656 87.0874 24.5805 87.3857 24.7983C87.6887 25.0114 88.0722 25.1179 88.5362 25.1179ZM101.963 16.0909V18.3636H95.3935V16.0909H101.963ZM96.8849 13.4773H99.9105V23.6477C99.9105 23.9271 99.9531 24.1449 100.038 24.3011C100.124 24.4527 100.242 24.5592 100.393 24.6207C100.55 24.6823 100.73 24.7131 100.933 24.7131C101.075 24.7131 101.217 24.7012 101.359 24.6776C101.501 24.6491 101.61 24.6278 101.686 24.6136L102.162 26.8651C102.01 26.9124 101.797 26.9669 101.523 27.0284C101.248 27.0947 100.914 27.1349 100.521 27.1491C99.7921 27.1776 99.1529 27.0805 98.6037 26.858C98.0592 26.6354 97.6354 26.2898 97.3324 25.821C97.0294 25.3523 96.8802 24.7604 96.8849 24.0455V13.4773ZM108.788 27.2131C107.666 27.2131 106.7 26.9858 105.891 26.5312C105.086 26.072 104.465 25.4233 104.03 24.5852C103.594 23.7424 103.376 22.7457 103.376 21.5952C103.376 20.473 103.594 19.4882 104.03 18.6406C104.465 17.7931 105.079 17.1326 105.869 16.6591C106.665 16.1856 107.598 15.9489 108.668 15.9489C109.387 15.9489 110.057 16.0649 110.678 16.2969C111.303 16.5241 111.847 16.8674 112.311 17.3267C112.78 17.786 113.144 18.3636 113.405 19.0597C113.665 19.7509 113.795 20.5606 113.795 21.4886V22.3196H104.584V20.4446H110.947C110.947 20.009 110.853 19.6231 110.663 19.2869C110.474 18.9508 110.211 18.688 109.875 18.4986C109.544 18.3045 109.158 18.2074 108.717 18.2074C108.258 18.2074 107.851 18.3139 107.496 18.527C107.145 18.7353 106.871 19.017 106.672 19.3722C106.473 19.7225 106.371 20.1132 106.366 20.544V22.3267C106.366 22.8665 106.466 23.3329 106.665 23.7259C106.868 24.1188 107.155 24.4219 107.524 24.6349C107.893 24.848 108.331 24.9545 108.838 24.9545C109.174 24.9545 109.482 24.9072 109.761 24.8125C110.041 24.7178 110.28 24.5758 110.479 24.3864C110.678 24.197 110.829 23.965 110.933 23.6903L113.732 23.875C113.589 24.5473 113.298 25.1345 112.858 25.6364C112.422 26.1335 111.859 26.5218 111.168 26.8011C110.481 27.0758 109.688 27.2131 108.788 27.2131ZM119.79 27.1776C118.961 27.1776 118.211 26.9645 117.538 26.5384C116.871 26.1075 116.34 25.4754 115.947 24.642C115.559 23.804 115.365 22.7765 115.365 21.5597C115.365 20.3097 115.566 19.2704 115.969 18.4418C116.371 17.6084 116.906 16.9858 117.574 16.5739C118.246 16.1572 118.982 15.9489 119.783 15.9489C120.393 15.9489 120.902 16.053 121.31 16.2614C121.722 16.465 122.053 16.7206 122.304 17.0284C122.56 17.3314 122.754 17.6297 122.886 17.9233H122.979V12.4545H125.997V27H123.014V25.2528H122.886C122.744 25.5559 122.543 25.8565 122.283 26.1548C122.027 26.4484 121.693 26.6922 121.281 26.8864C120.874 27.0805 120.377 27.1776 119.79 27.1776ZM120.749 24.7699C121.236 24.7699 121.648 24.6373 121.984 24.3722C122.325 24.1023 122.586 23.7259 122.766 23.2429C122.95 22.7599 123.043 22.1941 123.043 21.5455C123.043 20.8968 122.953 20.3333 122.773 19.8551C122.593 19.3769 122.332 19.0076 121.991 18.7472C121.651 18.4867 121.236 18.3565 120.749 18.3565C120.251 18.3565 119.832 18.4915 119.491 18.7614C119.151 19.0312 118.893 19.4053 118.717 19.8835C118.542 20.3617 118.455 20.9157 118.455 21.5455C118.455 22.1799 118.542 22.741 118.717 23.2287C118.897 23.7116 119.155 24.0904 119.491 24.3651C119.832 24.6349 120.251 24.7699 120.749 24.7699ZM130.253 27.1847C129.784 27.1847 129.382 27.0189 129.046 26.6875C128.714 26.3513 128.549 25.9489 128.549 25.4801C128.549 25.0161 128.714 24.6184 129.046 24.2869C129.382 23.9555 129.784 23.7898 130.253 23.7898C130.708 23.7898 131.105 23.9555 131.446 24.2869C131.787 24.6184 131.958 25.0161 131.958 25.4801C131.958 25.7926 131.877 26.0791 131.716 26.3395C131.56 26.5952 131.354 26.8011 131.098 26.9574C130.843 27.1089 130.561 27.1847 130.253 27.1847ZM134.499 12.4545H138.291L142.297 22.2273H142.467L146.473 12.4545H150.266V27H147.283V17.5327H147.162L143.398 26.929H141.366L137.602 17.4972H137.482V27H134.499V12.4545ZM157.714 27.2131C156.592 27.2131 155.626 26.9858 154.816 26.5312C154.011 26.072 153.391 25.4233 152.956 24.5852C152.52 23.7424 152.302 22.7457 152.302 21.5952C152.302 20.473 152.52 19.4882 152.956 18.6406C153.391 17.7931 154.004 17.1326 154.795 16.6591C155.591 16.1856 156.523 15.9489 157.593 15.9489C158.313 15.9489 158.983 16.0649 159.603 16.2969C160.228 16.5241 160.773 16.8674 161.237 17.3267C161.706 17.786 162.07 18.3636 162.331 19.0597C162.591 19.7509 162.721 20.5606 162.721 21.4886V22.3196H153.51V20.4446H159.873C159.873 20.009 159.779 19.6231 159.589 19.2869C159.4 18.9508 159.137 18.688 158.801 18.4986C158.469 18.3045 158.083 18.2074 157.643 18.2074C157.184 18.2074 156.777 18.3139 156.422 18.527C156.071 18.7353 155.797 19.017 155.598 19.3722C155.399 19.7225 155.297 20.1132 155.292 20.544V22.3267C155.292 22.8665 155.392 23.3329 155.591 23.7259C155.794 24.1188 156.081 24.4219 156.45 24.6349C156.819 24.848 157.257 24.9545 157.764 24.9545C158.1 24.9545 158.408 24.9072 158.687 24.8125C158.967 24.7178 159.206 24.5758 159.404 24.3864C159.603 24.197 159.755 23.965 159.859 23.6903L162.657 23.875C162.515 24.5473 162.224 25.1345 161.784 25.6364C161.348 26.1335 160.785 26.5218 160.093 26.8011C159.407 27.0758 158.614 27.2131 157.714 27.2131ZM168.716 27.1776C167.887 27.1776 167.136 26.9645 166.464 26.5384C165.797 26.1075 165.266 25.4754 164.873 24.642C164.485 23.804 164.291 22.7765 164.291 21.5597C164.291 20.3097 164.492 19.2704 164.895 18.4418C165.297 17.6084 165.832 16.9858 166.5 16.5739C167.172 16.1572 167.908 15.9489 168.708 15.9489C169.319 15.9489 169.828 16.053 170.235 16.2614C170.647 16.465 170.979 16.7206 171.23 17.0284C171.485 17.3314 171.68 17.6297 171.812 17.9233H171.904V12.4545H174.923V27H171.94V25.2528H171.812C171.67 25.5559 171.469 25.8565 171.208 26.1548C170.953 26.4484 170.619 26.6922 170.207 26.8864C169.8 27.0805 169.303 27.1776 168.716 27.1776ZM169.674 24.7699C170.162 24.7699 170.574 24.6373 170.91 24.3722C171.251 24.1023 171.511 23.7259 171.691 23.2429C171.876 22.7599 171.968 22.1941 171.968 21.5455C171.968 20.8968 171.878 20.3333 171.699 19.8551C171.519 19.3769 171.258 19.0076 170.917 18.7472C170.576 18.4867 170.162 18.3565 169.674 18.3565C169.177 18.3565 168.758 18.4915 168.417 18.7614C168.076 19.0312 167.818 19.4053 167.643 19.8835C167.468 20.3617 167.38 20.9157 167.38 21.5455C167.38 22.1799 167.468 22.741 167.643 23.2287C167.823 23.7116 168.081 24.0904 168.417 24.3651C168.758 24.6349 169.177 24.7699 169.674 24.7699ZM177.411 27V16.0909H180.436V27H177.411ZM178.93 14.6847C178.481 14.6847 178.095 14.5355 177.773 14.2372C177.455 13.9342 177.297 13.572 177.297 13.1506C177.297 12.7339 177.455 12.3764 177.773 12.0781C178.095 11.7751 178.481 11.6236 178.93 11.6236C179.38 11.6236 179.764 11.7751 180.081 12.0781C180.403 12.3764 180.564 12.7339 180.564 13.1506C180.564 13.572 180.403 13.9342 180.081 14.2372C179.764 14.5355 179.38 14.6847 178.93 14.6847ZM185.971 27.206C185.275 27.206 184.654 27.0852 184.11 26.8438C183.565 26.5975 183.134 26.2353 182.817 25.7571C182.505 25.2741 182.348 24.6728 182.348 23.9531C182.348 23.3471 182.46 22.8381 182.682 22.4261C182.905 22.0142 183.208 21.6828 183.591 21.4318C183.975 21.1809 184.41 20.9915 184.898 20.8636C185.391 20.7358 185.907 20.6458 186.446 20.5938C187.081 20.5275 187.592 20.4659 187.98 20.4091C188.369 20.3475 188.65 20.2576 188.826 20.1392C189.001 20.0208 189.088 19.8456 189.088 19.6136V19.571C189.088 19.1212 188.946 18.7732 188.662 18.527C188.383 18.2808 187.985 18.1577 187.469 18.1577C186.925 18.1577 186.491 18.2784 186.169 18.5199C185.847 18.7566 185.634 19.0549 185.53 19.4148L182.732 19.1875C182.874 18.5246 183.153 17.9517 183.57 17.4688C183.987 16.9811 184.524 16.607 185.182 16.3466C185.845 16.0814 186.612 15.9489 187.483 15.9489C188.089 15.9489 188.669 16.0199 189.223 16.1619C189.782 16.304 190.277 16.5241 190.708 16.8224C191.143 17.1207 191.487 17.5043 191.738 17.973C191.989 18.437 192.114 18.9934 192.114 19.642V27H189.245V25.4872H189.159C188.984 25.8281 188.75 26.1288 188.456 26.3892C188.163 26.6449 187.81 26.8461 187.398 26.9929C186.986 27.1349 186.51 27.206 185.971 27.206ZM186.837 25.1179C187.282 25.1179 187.675 25.0303 188.016 24.8551C188.357 24.6752 188.624 24.4337 188.819 24.1307C189.013 23.8277 189.11 23.4844 189.11 23.1009V21.9432C189.015 22.0047 188.885 22.0616 188.719 22.1136C188.558 22.161 188.376 22.206 188.172 22.2486C187.969 22.2865 187.765 22.322 187.561 22.3551C187.358 22.3835 187.173 22.4096 187.007 22.4332C186.652 22.4853 186.342 22.5682 186.077 22.6818C185.812 22.7955 185.606 22.9493 185.459 23.1435C185.312 23.3329 185.239 23.5696 185.239 23.8537C185.239 24.2656 185.388 24.5805 185.686 24.7983C185.989 25.0114 186.373 25.1179 186.837 25.1179Z" fill="white"/>
<defs>
<clipPath id="clip0_58_607">
<rect width="40" height="40" fill="white"/>
</clipPath>
</defs>
</svg>
